<?xml version="1.0" encoding="UTF-8"?>
<svg id="Layer_1" data-name="Layer 1" xmlns="http://www.w3.org/2000/svg" viewBox="0 0 390 844" style="
    position: absolute;
    top: 0px;
    left: 50%;
    transform: translateX(-50%) translateY(15%) scale(1.5);
    width: 400px;
    height: 556px;
    z-index: 100;
">
  <style>
    .loading_g path {
      stroke: #ffffff;
      stroke-dasharray: 4500;
      stroke-dashoffset: 5000;
      animation: draw 3s linear forwards;
    }

    @keyframes draw {
      to {
        stroke-dashoffset: 0;
      }
    }
  </style>

  <clipPath id="loading_clipPath">
    <path style="transform: translateX(2px);" class="cls-7"
      d="M108.82,354.3a15.24,15.24,0,0,0-1.5,1.24c-.58.58-.32.58-.71,1.23a42.61,42.61,0,0,1-3.38,4.23c-1.24,1.56-2.22,3.12-3.32,4.68A33,33,0,0,0,96.85,370,25.39,25.39,0,0,1,95,373.75c-1.69,2.6-3.19,5.33-4.75,8.06-1.17,2-1.82,4.16-3,6.31-1.82,3.31-3.45,6.83-5.07,10.27a13.45,13.45,0,0,0-1.11,2.8c-.26,1-.52,1.56-1.76,1.69a4.54,4.54,0,0,1-4.68-3.9,57.19,57.19,0,0,1,0-8.78,17.37,17.37,0,0,1,.72-4.75,6.69,6.69,0,0,0,.45-1.62c.07-.2.07-1.05.13-.92a8,8,0,0,1,.07-2.14c.19-1,.52-2.08.65-3.12,0-.39.52-5.86,1.36-5.73.13,0-.06.39.07.39a7.7,7.7,0,0,1,.26-1.23c-.07,0-.07.06-.13.06s.84-3.57,1-3.9l-2.47,3.19c-1,1.43-2.4,2.73-3.31,4.23-1.95,3.25-4.1,6.3-6.18,9.49-2,2.93-3.84,6-5.59,9a27.48,27.48,0,0,0-2.87,5.27,5,5,0,0,1-.26,1c-.84,1.95-3.9,2.34-5.59,1.37s-1.24-2.6-.71-4.1.84-2.66,1.23-4.16c.78-3.25,2.21-6.31,3.06-9.5s1.69-6.24,2.47-9.36a85.8,85.8,0,0,0,2.67-15.8c-.33,4.35-1.5,8.91-2.35,13.13a149.7,149.7,0,0,1-4.35,15.87c.65-2.6,1-5.27,1.75-7.87.33-1.1.78-2.08,1.11-3.18.06-.07.39-2.15.45-2.22a.23.23,0,0,0,.07.2c0-.13.06-.2.06-.33-.19.39-.13-1.1-.06-1.17a15.33,15.33,0,0,1,.32-1.75,18.38,18.38,0,0,0,.65-3.77c0-.72.59-6.38,1.17-6.38.13,0,0,.46.07.52a16.26,16.26,0,0,0,.26-1.82c-.07.13-.07.26-.2.33.07-.2.26-3.32.26-3.64-3,2-2.14-2.67-1.43-4,.52-1.17,1.63-2.53,3.06-2.6.33,0,.39.26.72.26s.39-.13.65-.06c1.1.19,1.75,1.23,2.21,2.21a10,10,0,0,1,.84,3.9c0,.85-.32,1.3-.32,1.89,0-.07.06-.13.13-.2.26-.06.13,2.67-.2,2.67a6.86,6.86,0,0,1,0-1.11c-.39,3.84-1.17,7.74-1.88,11.51.19-.71,1.49-7.61,1.56-7.61S64,374.46,63.82,375.57c-.85,4.35-1.56,8.71-2.74,13l3.45-4.94c1.37-1.89,2.21-3.84,3.71-5.72s2.79-3.71,4.23-5.53c.78-1.11,1.17-2.21,2-3.25,2.4-3.45,5.39-6.83,7.87-9.95.26-.33.19-.72.91-.91a2.75,2.75,0,0,1,2.27.91,3.34,3.34,0,0,1,1.24,2.34c.06,1-.46,1-.72,1.62l.26-.19c.2.06-.52,2.15-.71,2.15s-.13-.26-.07-.52a63.38,63.38,0,0,0-2.27,9.1c.13-.26.65-2.73,1.1-4.49-.71,3.51-1.88,10.6-2,11.32-.2,2.27-.39,4.55-.78,6.83-.27,1.56-.79,3.31-.92,4.74,0-.06.07-.13.2-.26s.06,2.87.06,3c1.18-2.74,2.35-5.53,3.71-8.2,1-1.95,2.21-3.77,3.12-5.79a111.47,111.47,0,0,1,7.55-13.59,147.29,147.29,0,0,1,8.84-13c1.24-1.56,2.73-2.92,4-4.48.33-.39.07-.72.85-.85,1-.19,2.14,1.11,2.47,2,0,0-.06-.06,0,.07C111.94,352.61,109.86,353.45,108.82,354.3Zm-26.4,23.28c.13-.78.32-1.49.52-2.4,0,.06-.07.13-.07.19a4.38,4.38,0,0,1-.32.72A4.09,4.09,0,0,0,82.42,377.58Zm1.08-8.08a22,22,0,0,1,1-3S83.63,368.91,83.5,369.5Z"/>
    <path class="cls-7"
      d="M120.39,382.26l-2,2.67-3.52,4.55c-.91,1.17-2,2.28-2.92,3.45s-1.82,2.67-2.93,3.9a17,17,0,0,1-4.1,3.38,4.21,4.21,0,0,1-3.31.33c-1.69-.46-3-.74-4.1-2a5.38,5.38,0,0,1-.91-2,7.53,7.53,0,0,1-.13-1.3,8,8,0,0,1,.32-2.15c.13-.85.53-1.63.66-2.47s.39-1.76.52-2.6a13.92,13.92,0,0,1,.13-2.41c.13-.52.52-1,.71-1.62a6.24,6.24,0,0,0-.58,1.1c-.2.52-.33,1-.52,1.5s-.26,1-.46,1.49a5.8,5.8,0,0,0-.59,1.76c-.06.58,0,1.17-.06,1.75a7.1,7.1,0,0,0-.26,1.63c0,.19.13.58.13.72s-.13.58-.13.91c0,.58.13,1.17.19,1.82-1-1.82-.84-3.65-.52-5.6s.59-3.83,1-5.72a26,26,0,0,1,5.07-10.66c2-2.67,4.68-4.69,8.19-4a6,6,0,0,1,3.58,1.95,4.64,4.64,0,0,1,.39,4.23c-.85,2.54-3,4.55-5,6.24a19.67,19.67,0,0,1-2.73,2,12,12,0,0,1-2.08.91l-1.11.39c-.45.13-.52.07-.71.46-.33.65-.13,1.3-.26,1.95-.13.84-.33,1.62-.52,2.47-.33,1.56-.85,3.58-.46,5.2.72,3.32,6.18-1.82,7.16-2.73.65-.59,1.23-1.24,1.82-1.82.32-.39.71-.72,1-1.11a2,2,0,0,0,.13-.45,34.35,34.35,0,0,1,2.8-3.58c1.17-1.36,2.21-2.79,3.32-4.29.58-.85,2.9-6,3-1.5V381c.06.06.06.06.06,0C120.91,381.55,120.72,381.87,120.39,382.26Zm-16.71,1.57a18.9,18.9,0,0,0,5.46-4.36l1.11-1.43c.19-.33.52-.52.65-.91s-.07-.59,0-1l.26-1.36c.06-.65-.2-2.35-1.17-2.15a3,3,0,0,0-1.17,1l-1.17,1.56a42.52,42.52,0,0,0-3.06,6.31.47.47,0,0,1-.07.19C104.2,382.39,104,383.11,103.68,383.83Z"/>
    <path class="cls-7"
      d="M123.44,356.55a4.33,4.33,0,0,1-1.24-2.79c0-.13.39-.39.91-.59a21,21,0,0,0,4.69-3.25,8,8,0,0,0,2-3.25c.13-.72-.84-1.37-3.18-2.21-.72-.26-1.5-1.5-1.76-3s-.19-1.63.39-1.89c1.17-.45,5,2.34,6.44,4.62a19.15,19.15,0,0,1,1.17,2.66,5.64,5.64,0,0,1,.32,3.13c-.19,2.14-.58,2.79-2.53,4.55a12,12,0,0,1-5.14,2.86C124.35,357.66,124.41,357.66,123.44,356.55Z"/>
    <path class="cls-7"
      d="M151.87,384.08a22.1,22.1,0,0,1-1.89,3.19c-1.5,2.21-3.12,4.42-4.68,6.64a33.18,33.18,0,0,1-5.34,6,43.5,43.5,0,0,1-3.57,2.6.31.31,0,0,1,.13-.19l-.46.19c.33-.06-.91.78-1.23.91a3.54,3.54,0,0,1-2.67-.58,4.45,4.45,0,0,1-1.69-2.21,7.15,7.15,0,0,1-.46-4.36c.07-.32,1-4.1,1.44-4,.13,0-.13.52-.07.58l.46-1.62a77.82,77.82,0,0,1,3.57-7.8c-1.95.39-4.42.32-5.79-1.37-.39-.52-.26-1-.39-1.37s-.45-.78-.58-1.23c-.65-3.19,2.73-7.12,5.85-5l.2-.69c.06-.39.84.59.91.91s-.52,2.08-.85,1.95c-.06,0-.26-.11-.26-.17-.46,1.24,1.13,2.7,1,4-.13,1-1.91-.19-1.06,0,1.23.32,3.18.13,4.74.58a21.33,21.33,0,0,0-3.12-.52.06.06,0,0,1-.06-.06c1,.13,2,.13,2.86.32,1.88.46,3.06,1.17,2.28,3.19s-1.76,3.77-2.61,5.66-1.43,3.77-2.14,5.66c-.2.65-1.63,3.38-1.11,4s4.23-2.47,5.21-3.51c-.2.19-.4.19-.53.32a20.14,20.14,0,0,1,1.5-2.08l1.89-2.41,3.51-4.61,3.57-4.82c.33-.39,1.89-2.66,2.28-1C152.91,382.2,152.26,383.3,151.87,384.08Zm-20.16,17.56a.31.31,0,0,1-.13-.19l.06.06c-.32-.71-.65-1.43-.78-1.82l.19.85-.25-1.37v-.06a.48.48,0,0,1-.07-.2.19.19,0,0,0,.07.13v-.32a11.15,11.15,0,0,1,.13-2.6v-.07a11,11,0,0,0,0,4.23,10.18,10.18,0,0,0,1,1.82c0-.07,0-.13-.06-.13a3.94,3.94,0,0,0,1.49.91,3.64,3.64,0,0,1-1.62-1.3Zm-.78-5.65v.06c0-.06.06-.13.06-.19S130.93,395.92,130.93,396Zm.19-1.24c0,.13-.07.2-.07.26S131.12,394.88,131.12,394.75Zm.13,0a40.51,40.51,0,0,1,1.82-4.88l1.24-2.86a38.36,38.36,0,0,1,2-4c-.45.13-1.36,2.48-1.49,2.67a30.37,30.37,0,0,0-1.56,3.38A35,35,0,0,0,131.25,394.75Zm.13,6.37a.26.26,0,0,0-.06-.13C131.32,401.06,131.38,401.06,131.38,401.12Zm1.89-21.59a.06.06,0,0,1,.06-.06Zm0,.07a2.29,2.29,0,0,0,1.75.91,3.18,3.18,0,0,1-1.49-.39A.81.81,0,0,1,133.27,379.6Zm7.08,5.53L139,388.05l1.36-2.86Zm0-.07h.07V385Zm0,0h.07V385Z"/>
    <path class="cls-7"
      d="M172.61,382.26l-2,2.67-3.51,4.55c-.91,1.17-2,2.28-2.93,3.45s-1.82,2.67-2.92,3.9a17,17,0,0,1-4.1,3.38,4.23,4.23,0,0,1-3.32.33,8.76,8.76,0,0,1-4.29-2.8,2.37,2.37,0,0,1-.71-1.23,7.53,7.53,0,0,1-.13-1.3,8,8,0,0,1,.32-2.15c.13-.85.52-1.63.65-2.47s.39-1.76.52-2.6a16.23,16.23,0,0,1,.13-2.41c.13-.52.52-1,.72-1.62a6.36,6.36,0,0,0-.59,1.1c-.19.52-.32,1-.52,1.5s-.26,1-.45,1.49a5.8,5.8,0,0,0-.59,1.76c-.06.58,0,1.17-.06,1.75a7.1,7.1,0,0,0-.26,1.63c0,.19.13.58.13.72s-.13.58-.13.91c0,.58.13,1.17.19,1.82-1-1.82-.84-3.65-.52-5.6s.59-3.83,1-5.72a26.11,26.11,0,0,1,5.07-10.66c2-2.67,4.69-4.69,8.2-4a6,6,0,0,1,3.58,1.95,4.64,4.64,0,0,1,.39,4.23c-.85,2.54-3,4.55-5,6.24a20.94,20.94,0,0,1-2.73,2,12,12,0,0,1-2.08.91l-1.11.39c-.45.13-.52.07-.71.46-.33.65-.13,1.3-.27,1.95-.12.84-.32,1.62-.52,2.47-.32,1.56-.84,3.58-.45,5.2.71,3.32,6.18-1.82,7.15-2.73.65-.59,1.24-1.24,1.82-1.82a13.93,13.93,0,0,0,1-1.11,2,2,0,0,0,.13-.45,34.35,34.35,0,0,1,2.8-3.58c1.17-1.36,2.21-2.79,3.31-4.29.59-.85,1.95-3.25,3-1.5V381c.07.06.07.06.07,0C173.5,381.5,172.93,381.87,172.61,382.26Zm-16.71,1.57a19,19,0,0,0,5.46-4.36l1.1-1.43c.2-.33.52-.52.65-.91s-.06-.59,0-1l.26-1.36c.07-.65-.19-2.35-1.17-2.15a3,3,0,0,0-1.17,1l-1.17,1.56a43.47,43.47,0,0,0-3.05,6.31.47.47,0,0,1-.07.19C156.42,382.39,156.22,383.11,155.9,383.83Z"/>
    <path class="cls-7"
      d="M217.87,383.89l-5.27,4c-1.95,1.56-3.83,3.06-5.66,4.68a31,31,0,0,0-2.66,2.22,7.08,7.08,0,0,0-1.3,3.05c-2.21,7.48-4.16,15.28-8.07,22.05-1.23,2.21-2.27,4.55-5.07,5.27-3.25.78-5.92-1.82-7.09-4.62-1.3-3.19,0-6.11,1.89-8.85a73.77,73.77,0,0,1,5.27-6.82,48.7,48.7,0,0,1,4.16-4.1,53.12,53.12,0,0,0,4.42-4.1c1.17-1.49,1.5-4.29,2.08-6.18l1.43-5.07a64.56,64.56,0,0,1-4.81,7c-1.5,2.08-3,4.55-5.14,5.85a2.86,2.86,0,0,1-2.86.39c-.45-.19-2.93-2.4-2.67-2.86.07.07.13.13.2.13l-.2-.45c.13.65-.65-.85-.71-1a9.1,9.1,0,0,1-.33-2.67,23.09,23.09,0,0,1,.33-4.22,9.24,9.24,0,0,1,1.36-3.45c.07-.19,1.37-2.34,1.63-2.21.06,0-.26.45-.2.52l1.11-1.63a.51.51,0,0,1-.32.2c-.46-.26,5.78-7,6.43-7.55a13.38,13.38,0,0,1,3.45-2.6,4.81,4.81,0,0,1,1.76-.39c.52-.06.71-.32,1.17-.45a5.14,5.14,0,0,1,4.87,1.43c.72.78,1.11,3.38-.52,3.45-.39,0-.58-.26-.91-.46l.2.2a18.28,18.28,0,0,0-2.54.06l.85-.32c-3.9.65-7.22,5.39-9.3,8.38a78.09,78.09,0,0,1,5.27-6c-1.17,1.1-4.75,5.65-5,6a33.7,33.7,0,0,0-4.36,8.26c-.32.91-1.69,6.38.65,4.56a26.65,26.65,0,0,0,4.88-5.21c-.07.07-.13.13-.2.13s1-1.82,1.24-2.08l1.76-2.66c1.23-1.76,2.4-3.65,3.64-5.4.52-.72,1.36-2.15,2.14-2.47,2.67-1.17,6,1.17,4.36,3.9a51.54,51.54,0,0,0-4.62,9.56c.33.19,3.9-3.12,4.49-3.58,1.43-1.17,2.86-2.34,4.36-3.38,1.1-.85,2.27-1.56,3.38-2.41.58-.52,2.47-2.4,2.73-.52C219.82,382.72,218.72,383.24,217.87,383.89Zm-20.42,16.84a72.68,72.68,0,0,0-7.93,8.78c-2,2.67-5.53,6.83-4.49,10.47,1.56,5.73,5.85-2.08,6.76-4a107.48,107.48,0,0,0,4.49-11.71,4.21,4.21,0,0,1,.26-.71C196.86,402.68,197.19,401.71,197.45,400.73Zm-3.19-18.66a4.8,4.8,0,0,1-.71.84,10.87,10.87,0,0,0-2,3.26,20.9,20.9,0,0,0,1.5-2.09Zm-.52,2.41a19.54,19.54,0,0,0-1.36,2.14l.58-.84ZM196.28,408c-1,2.6-2.21,5-3.38,7.55.58-1,1.36-2,1.95-3.13a32.73,32.73,0,0,0,1.43-4.22Z"/>
    <path class="cls-7"
      d="M239.46,382.26l-2,2.67-3.51,4.55c-.91,1.17-2,2.28-2.93,3.45s-1.82,2.67-2.92,3.9a17,17,0,0,1-4.1,3.38,4.24,4.24,0,0,1-3.32.33c-1.69-.46-3-.74-4.16-2a5.25,5.25,0,0,1-.84-2,7.53,7.53,0,0,1-.13-1.3,8,8,0,0,1,.32-2.15c.13-.85.52-1.63.65-2.47s.39-1.76.52-2.6a16.23,16.23,0,0,1,.13-2.41c.13-.52.52-1,.72-1.62a6.36,6.36,0,0,0-.59,1.1c-.19.52-.32,1-.52,1.5s-.26,1-.45,1.49a5.8,5.8,0,0,0-.59,1.76c-.06.58,0,1.17-.06,1.75a7.1,7.1,0,0,0-.26,1.63c0,.19.13.58.13.72s-.13.58-.13.91c0,.58.13,1.17.19,1.82-1-1.82-.84-3.65-.52-5.6s.59-3.83,1-5.72a26.11,26.11,0,0,1,5.07-10.66c2-2.67,4.69-4.69,8.2-4a6,6,0,0,1,3.58,1.95,4.64,4.64,0,0,1,.39,4.23c-.85,2.54-3,4.55-5,6.24a20.94,20.94,0,0,1-2.73,2,12,12,0,0,1-2.08.91l-1.11.39c-.46.13-.52.07-.72.46a6.53,6.53,0,0,0-.25,1.95c-.14.84-.33,1.62-.53,2.47-.32,1.56-.84,3.58-.45,5.2.71,3.32,6.18-1.82,7.15-2.73.65-.59,1.24-1.24,1.82-1.82a13.93,13.93,0,0,0,1-1.11,2,2,0,0,0,.13-.45,34.35,34.35,0,0,1,2.8-3.58c1.17-1.36,2.21-2.79,3.31-4.29.59-.85,2-3.25,3-1.5V381c.07.06.07.06.07,0C240,381.55,239.78,381.87,239.46,382.26Zm-16.72,1.57a19,19,0,0,0,5.47-4.36l1.1-1.43c.2-.33.52-.52.65-.91s-.06-.59,0-1l.26-1.36c.07-.65-.19-2.35-1.17-2.15a3,3,0,0,0-1.17,1l-1.17,1.56a43.47,43.47,0,0,0-3.05,6.31.47.47,0,0,1-.07.19C223.27,382.39,223.07,383.11,222.74,383.83Z"/>
    <path class="cls-7"
      d="M255.39,395.86c-.72,2.53-1.69,5.33-1.69,8a2.52,2.52,0,0,0,.45,1.82,6.84,6.84,0,0,0,3-2.28c-.07.06-1.11,1-1.17.85-.07-.39,1.23-1.5,1.43-1.76l1.75-2.15,3.25-4.22c2.41-3.26,4.75-6.57,7.09-9.82,1-1.37,2-2.74,3-4.1.2-.2.46-.72.72-.85,1.17-.45,1.17,1,.91,1.82a16.56,16.56,0,0,1-2.34,3.39c-.52.78-.85,1.56-1.37,2.4-1.62,2.73-3.44,5.34-5.2,7.94-1.95,2.79-3.84,5.65-5.92,8.32-1.23,1.69-3,4.42-5,5.27a4.1,4.1,0,0,1-3.83-.91,6.22,6.22,0,0,1-2.08-2.93c-.07-.32-.65-2-.26-2.4,0,.19.06,1.17.06,1.17a12.51,12.51,0,0,1,0-1.5,6.84,6.84,0,0,1,0-1.11,7.73,7.73,0,0,1,.13-1.23c.2-1.17.46-2.34.72-3.51.58-2.47,1.1-4.95,1.62-7.48a103.43,103.43,0,0,1-7,10.4,9.59,9.59,0,0,1-2.86,2.74c-1.82.78-4.23-.85-5.27-2.22a4.38,4.38,0,0,1-.71-3.9c.12-.52.12-3.31.51-3.7a2,2,0,0,1-.06.52l.13-.72a3.91,3.91,0,0,1,0-.91,5.1,5.1,0,0,1,.26-1.37,30.94,30.94,0,0,1,.85-3.31c.58-1.95,1.17-3.9,1.62-5.92a39.23,39.23,0,0,1,1.82-5.92c.13-.26,1.63-4.55,2-4.55.06,0-.2.84-.13.84l1.17-3.12c-.13.33-.46.85-.46.72a8.09,8.09,0,0,1,1-2.34l.91-2.34c-.85.06-1.63.39-2.54.45-1.69.13-3.44,0-5.13.07-.85,0-7.68.45-7.74-.65-.07-.46,3.12-1,3.44-1a46.52,46.52,0,0,1,9.56-.85,17.35,17.35,0,0,0,2.6,0c.72-.2.2.32.78-.52l.33-.85a36.38,36.38,0,0,1,1.76-3.9c1.3-2.79,2.47-5.59,3.9-8.32a21.45,21.45,0,0,1,1.95-2.6c.65-1,1-2.28,1.69-3.32a22.2,22.2,0,0,1,2-2.93,5.24,5.24,0,0,1,4-1.23c1,0,3.19.19,3.25,1.69,0,.71-.72,1.1-1.17,1.56.19-.13.39-.33.39-.2a15.2,15.2,0,0,1-2.67,3.78c-.06,0,.91-1.63,1-1.76a110.46,110.46,0,0,0-7.55,13.46c1.63-3.31,3.65-7.28,4.1-7.54-.52.45-5.53,11.12-6,12.09,2.34,0,4.69-.06,7-.13,1.49,0,1.36.13,2-1.36l1.37-3.06a18.71,18.71,0,0,1,1.69-2.92c.32-.46.72-.65,1-1.24a25.34,25.34,0,0,1,2-3.9c.65-1,1.24-2.34,2.41-2.93a6.6,6.6,0,0,1,5.53-.13c1.62,1,.45,2-.33,2.93.2-.2.46-.46.46-.33a18.51,18.51,0,0,1-2.74,4c-.06,0,.91-1.69,1-1.82a97.35,97.35,0,0,0-5.79,10.4c.13,0,.26-.13.46-.39a.79.79,0,0,0-.13.39l6.24-.26a6.35,6.35,0,0,0,1.1-.06c.07,0-.12-.33.14-.26s.52-.13.65.32c.52,1.76-3.13,2.28-4.17,2.28-.78.07-2-.32-2.79-.19-.33.06-.2.26-.52.39s-1.11,0-1.5.19c-.91.33-1.56,2.6-2,3.51-.58,1.3-1.16,2.6-1.69,3.9-1.1,2.54-2.21,5.14-3.18,7.81C258.58,385.19,257,390.52,255.39,395.86Zm-15.54,3.57c-1-.71-.59-2.73-.46-3.77a1.93,1.93,0,0,0,.07-.52l.39-1.95C239.52,394.62,238.35,398.52,239.85,399.43Zm15.09-20.94-.4.72c0-1.11,1.05-2.73,1.37-3.77s.78-2.35,1.24-3.52c.84-2.4,1.82-4.68,2.79-6.95a14.7,14.7,0,0,0-4.22.26,11.84,11.84,0,0,1-2.61.13,8.06,8.06,0,0,0-1.3,0c-.71.19-.65.06-1,.91-1.69,3.64-3.25,7.34-4.62,11.12s-2.54,7.28-3.77,10.92a56.25,56.25,0,0,0-1.69,5.73c-.2.78-1,3.7-.59,4.22a.82.82,0,0,0,.52.72c-.13-.13-.06-.46-.19-.52.84.06,1.36-.52,2.08-1.3a59.47,59.47,0,0,0,4.23-5.66c2.66-3.77,5.07-7.67,7.67-11.51Zm-14.7,13.2a71.94,71.94,0,0,1,3.25-9.82c1.75-4.48,3.38-9.1,5.33-13.59,2.28-5.27,4.49-10.79,7.22-16.06-3,5.72-5.53,11.77-8.19,17.49a129.21,129.21,0,0,0-5.92,15.48C241.28,387.34,240.69,389.48,240.24,391.69Zm13.39-32-.52,1.1Zm.39-.85-.39.85Zm1.63,29.07a78.58,78.58,0,0,1,2.73-7.41c.85-2.08,1.63-4.36,2.34-6.57-.91,2.21-2,4.36-2.73,6.57Q256.73,384.22,255.65,387.92Zm4.55-7.8,1.56-3.77v-.13a.07.07,0,0,0,.07-.07l.78-1.95C261.76,376.15,261,378.1,260.2,380.12Zm3.3-8.62c0-.07.74-1,.74-1.07l.12-.33v.07l.13-.33c.79-1.69,1.57-3.38,2.48-5.07C266.25,364.77,264,370.07,263.5,371.5Zm.86-1.4.07-.19A.22.22,0,0,0,264.36,370.1Zm.07-.19.06-.07A.06.06,0,0,0,264.43,369.91Zm4.62-9.24c-.07.07-.13.13-.13.2S269,360.74,269.05,360.67Zm0,0a.24.24,0,0,1,.06-.19A.24.24,0,0,0,269.05,360.67Zm.06-.26c.52-1.17.91-2.34,1.24-2.27A14.9,14.9,0,0,0,269.11,360.41Z"/>
    <path class="cls-7"
      d="M286.08,384.61c-1.1,1.62-2.14,3.18-3.38,4.74-1.3,1.76-2.92,4.56-5.2,5.08-.52.06-3-.59-2.93-1h.13c-.52-.26,0,.32-.78-.26a5.38,5.38,0,0,1-1.36-1.56,8.59,8.59,0,0,1-1.89-3c-.06-.33-.19-2.67.33-2.67.13,0,0,.33.06.33l.2-1.17c-.07.13-.07.19-.2.26s1-4.69,1.11-5.08c.52-1.36.78-2.92,2.08-3.7a3.6,3.6,0,0,1,3.45,0c.51.19,2,.84,2,1.49,0,.39-.32.46-.52.65a.43.43,0,0,1,.26-.06c.2.13-.78,1.49-.91,1.43s-.11.57,0,.38a25.67,25.67,0,0,0-2.89,5.67,29.3,29.3,0,0,1,2.15-4.43c.19.07-4.29,7.87-2.08,9,1,.52,2.8-1.11,3.51-1.69a27.38,27.38,0,0,0,3.84-3.32.55.55,0,0,1-.46.13c-.26-.32,3-4.62,3.58-5s1.36-.58,1.5.26C287.9,382.33,286.73,383.76,286.08,384.61ZM275,388.31l-.13.52.13-.39v-.06C275.09,388.25,275.09,388.25,275,388.31Zm.84-16.06c-.06-.2-.26-2.21.46-1.89,0-.19,1.56-2.71,1.17-1.86.58-.78.32-.15.78-1.13l-.78,1.17a26.68,26.68,0,0,0,1.56-4c0-.06-.13-.65,0-.78-1.36-.52-.39-1.3.2-1.76-.13,0-.2,0-.26-.13-.26-.26.52-.45.71-.52a3.58,3.58,0,0,1,2.93.26,4.64,4.64,0,0,1,1.62,2.21,2.56,2.56,0,0,1-1,2.35c-.26.26-.72.45-1,.71-.39.46-.33,1-.65,1.5s-.59.45-.78.78.48-1.83.68-1.63c-.26.13-1.2,2.47-1.4,2.67a7.11,7.11,0,0,1-1.82,2.21,6.34,6.34,0,0,0,1.82-1.69c.52-.65-.38-.86.4-1.19-.65.72.71,1.32-.07,1.84s-.07-.46-.91.32c0,0,.39-.06.19.07a8.13,8.13,0,0,1-1.95,1.69c-.39.13-.65.39-1.11.19s-.26-.52-.39-.71A6.19,6.19,0,0,1,275.87,372.25Zm.52-1.89a.07.07,0,0,1,.07.07c.06-.07.06-.07.06-.13S276.46,370.36,276.39,370.36Zm1-1.69a1.61,1.61,0,0,1-.26.39Z"/>
    <path class="cls-7"
      d="M306.83,386.43c-1.43,1.82-2.73,3.77-4.29,5.46-1.17,1.23-3.13,3.32-5,2.73-.39-.13-2.79-1.43-2.73-1.76l.2.13.44-.49c.33.52-1.22,0-1.29,0a4.75,4.75,0,0,1-1.17-3.38c0-.71.13-1.43.2-2.14a18.19,18.19,0,0,1,.65-4.23c.13-.33,1.49-4,1.95-3.84.13,0-.2.46-.13.52l.91-1.82c-.13.13-.2.26-.33.33a13.41,13.41,0,0,1,1-1.89c-1.3,1.5-2.34,3.06-3.51,4.62a28.8,28.8,0,0,0-2.47,2.86c-1.37,2.34-2.68,3.59-3.79,6l-.64.37c-1.17,1.43-2.92-.26-3.57-1.36s-.39-1.82-.26-3a18.14,18.14,0,0,1,.39-3.19c.39-1.37.91-2.67,1.43-4s.91-2.73,1.43-4.1a23,23,0,0,0,1.17-2.8c.19-.71,0-1.17.84-1.69a3.66,3.66,0,0,1,2.48-.26c1,.2,2.92,1.3,1.82,2.93-.46.58-1.24,1.23-1.76,1.89a4,4,0,0,0-.78,1.88c-.13.52-.65,1-.91,1.5a13.58,13.58,0,0,0-.91,2.47,9.87,9.87,0,0,0-.13,1.43c-.13,1.36-.59,2.73-.72,4.1.07-.26.52-.72.59-.65s-.65,1.17-.59,1.17l3.84-5.6c-.85,1.11-1.5,1.89-1.5,1.89-.19-.13,7.55-10,8.46-10.86,1.89-1.76,4.29-1.69,5.2,1.36,1,3.26-2.34,5.4-3.9,7.74a36.25,36.25,0,0,0-2.21,4.23,12.87,12.87,0,0,0-1.56,4.16,12.58,12.58,0,0,1,1.1-2.79,15.78,15.78,0,0,1,2.69-4.8c-.46.85-1.39,3-1.78,3.76l.33-.39a13.25,13.25,0,0,1-.65,2.34,10.73,10.73,0,0,0-.59,2.47,6.72,6.72,0,0,0,0,1.1l.07.07c0-.07.45-.13.58-.2a9.77,9.77,0,0,0,2.74-1.88c1.56-1.24,3.05-2.6,4.55-3.9a42.38,42.38,0,0,0,3.44-3.19c.39-.59,1.3-1.63,1.63-.07S307.61,385.39,306.83,386.43Z"/>
    <path class="cls-7"
      d="M336.55,383.89l-5.27,4c-1.95,1.56-3.84,3.06-5.66,4.68a32.73,32.73,0,0,0-2.67,2.22,7.2,7.2,0,0,0-1.3,3.05c-2.21,7.48-4.16,15.28-8.06,22.05-1.23,2.21-2.28,4.55-5.07,5.27-3.25.78-5.92-1.82-7.09-4.62-1.3-3.19,0-6.11,1.89-8.85a75.44,75.44,0,0,1,5.26-6.82,48.7,48.7,0,0,1,4.16-4.1,51.7,51.7,0,0,0,4.43-4.1c1.17-1.49,1.49-4.29,2.08-6.18l1.43-5.07a67.56,67.56,0,0,1-4.81,7c-1.5,2.08-3,4.55-5.14,5.85a2.86,2.86,0,0,1-2.86.39c-.46-.19-2.93-2.4-2.67-2.86.07.07.13.13.2.13l-.2-.45c.13.65-.65-.85-.71-1a9.1,9.1,0,0,1-.33-2.67,23.09,23.09,0,0,1,.33-4.22,9.24,9.24,0,0,1,1.36-3.45c.07-.19,1.37-2.34,1.63-2.21.06,0-.26.45-.2.52l1.11-1.63c-.07.07-.2.2-.33.2-.45-.26,5.79-7,6.44-7.55a13.38,13.38,0,0,1,3.45-2.6,4.77,4.77,0,0,1,1.75-.39c.52-.06.72-.32,1.17-.45a5.15,5.15,0,0,1,4.88,1.43c.72.78,1.11,3.38-.52,3.45-.39,0-.58-.26-.91-.46l.2.2a18.28,18.28,0,0,0-2.54.06l.84-.32c-3.9.65-7.21,5.39-9.29,8.38a77.81,77.81,0,0,1,5.26-6c-1.17,1.1-4.74,5.65-5,6a33.36,33.36,0,0,0-4.36,8.26c-.33.91-1.69,6.38.65,4.56a27,27,0,0,0,4.88-5.21c-.07.07-.13.13-.2.13s1-1.82,1.24-2.08l1.75-2.66c1.24-1.76,2.41-3.65,3.64-5.4.52-.72,1.37-2.15,2.15-2.47,2.67-1.17,6,1.17,4.36,3.9a51.54,51.54,0,0,0-4.62,9.56c.33.19,3.9-3.12,4.49-3.58,1.43-1.17,2.86-2.34,4.35-3.38,1.11-.85,2.28-1.56,3.39-2.41.58-.52,2.47-2.4,2.73-.52C338.5,382.72,337.39,383.24,336.55,383.89Zm-20.42,16.84a72.76,72.76,0,0,0-7.94,8.78c-2,2.67-5.53,6.83-4.48,10.47,1.56,5.73,5.85-2.08,6.76-4A107.48,107.48,0,0,0,315,404.31a4.21,4.21,0,0,1,.26-.71C315.54,402.68,315.87,401.71,316.13,400.73Zm-3.19-18.66a4.82,4.82,0,0,1-.72.84,11,11,0,0,0-2,3.26,20.76,20.76,0,0,0,1.49-2.09Zm-.52,2.41a19.67,19.67,0,0,0-1.37,2.14l.59-.84ZM315,408c-1,2.6-2.22,5-3.39,7.55.59-1,1.37-2,2-3.13a32.73,32.73,0,0,0,1.43-4.22Z"/>
    <path class="cls-7"
      d="M143,498.94c.26,1-1.75,2.8-2.41,3.39a9.24,9.24,0,0,1-3.77,1.88c-2.86.78-5-.26-6.83-2.6-3.77-4.88-3.12-10.66-1.56-16.13,0,0,.07-1.3.33-1.49a8.8,8.8,0,0,1-.13.91l.32-1.17c0,.06-.06.06-.13.06-.19-.78.59-2.34.85-3.05l1.43-3.26c.85-1.88,1.56-3.7,2.28-5.65a50.93,50.93,0,0,1,2.86-6.18c.19-.33,1.56-3.45,1.82-3.38a3.45,3.45,0,0,0-.2.84c.46-1.1.85-2.21,1.24-3.38l-.46.91c-.06-.85,1.43-3,.07-3.32-1.11-.26-2.73,1.43-3.45,2.08a53.35,53.35,0,0,0-7.48,9,32.57,32.57,0,0,1-3.44,4.49c-.85.78-1.37,2.21-2.08,3.25-1.18,1.89-2.22,3.77-3.32,5.6a26.16,26.16,0,0,0-2.41,4.16c-.65,1.82-1.36,3.44-3.38,1.56s-2-4.36-1.43-6.83c1.43-7.35,5.33-14.5,9.1-20.88A53.89,53.89,0,0,0,125,451c.19-.52.71-1.49.19-1.69s-2.21,1-2.66,1.3c-3,2.22-5.27,5.21-7.55,8.13s-4.36,6.12-6.44,9.3-4.29,6.7-6.37,10.08a30.35,30.35,0,0,0-2.73,4.95c-.72,1.62-1.3,3.31-1.95,5a17,17,0,0,1-1.37,3.58,2.51,2.51,0,0,1-3.64.2,3.74,3.74,0,0,1-1.17-3.26c.2-3.57,1.76-7.41,3.12-10.66s2.8-6.37,4-9.69c2.47-6.76,6.12-13.27,8-20.29v.65l.39-2.41c.26-1.56.2-3.12-1.75-2.66a7.79,7.79,0,0,0-3.58,2.53,26,26,0,0,0-5.27,8.85,12.52,12.52,0,0,0-.52,2.08c-.06.52.13,1-.32,1.43-.78.65-1.63.13-2.15-.59-1-1.56-.91-4-.45-5.78.45-1.57,1.56-2.67,2.21-4.1.19-.46.13-1,.52-1.5l.65-.91c.71-.78,1.43-1.49,2.21-2.21a14.54,14.54,0,0,1,5-2.73c2.08-.65,4.35-.78,6,1a10.68,10.68,0,0,1,2,4.56c.46,2-.2,4.55-.78,6.44s-1.17,3.83-1.82,5.72-1.3,3.57-2,5.4c-.52,1.43-.78,2.79-1.24,4.22A104.48,104.48,0,0,1,117,452.58c2.15-2.28,7.29-9.82,10.86-5.47a7.79,7.79,0,0,1,1.24,7.48c-.91,2.21-2.54,4.16-3.51,6.31-2.54,5.79-5.53,11.45-7.35,17.56,2.34-4,4.75-8.07,7.48-11.9-.65.91-1.43,1.82-2,2.79,1.17-1.82,2.21-3.38,2.47-3.7a54.26,54.26,0,0,1,7.61-8.78c1.56-1.43,3.64-3.12,5.92-3.12,2.67-.07,4.36,2.34,4.81,4.74,1,5.66-2.79,10.93-5.07,15.68.13-.26.32-.46.45-.46s-1.62,4.23-1.82,4.62c-.78,1.82-1.49,3.64-2.27,5.4a66,66,0,0,0-3.51,10.34c-.39,1.69-1.11,4.55.78,5.59s4.81.65,6.63,0C140.3,499.46,142.84,497.9,143,498.94ZM98.94,468.77c1.17-2.93,2.4-5.79,3.77-8.59a46.57,46.57,0,0,0,3.19-9c-.33,1.05-.78,2.09-1.17,3-.91,2.14-1.63,4.42-2.54,6.57C101,463.37,100,466,98.94,468.77Zm20.55,7.09s1.82-2.8,3.51-5.53C122.09,471.89,119.68,475.92,119.49,475.86Zm3.64-5.73-.13.2C123.07,470.26,123.13,470.2,123.13,470.13Zm.26-.32v-.07l-.26.39Zm4.88,18.4c-.2.26-.2.39,0,.46C128.4,488.41,128.4,488.28,128.27,488.21Zm.52-1.62c.65-1.95,1.49-3.9,2.34-5.79a33.56,33.56,0,0,0,2.8-7.15c.19-.39.19-.59,0-.65-.65.78-.91,2.53-1.3,3.51-.52,1.23-1,2.47-1.63,3.64A42,42,0,0,0,128.79,486.59ZM130,461l.07-.13.06-.07a.06.06,0,0,1-.06.07l.06-.07.13-.12.07-.07.13-.2-.13.13a2,2,0,0,0-.39.52V461l-.13.19Zm.33-.46-.07.07A.07.07,0,0,0,130.35,460.57Zm.13-.13,2.41-2.53A29,29,0,0,0,130.48,460.44Z"/>
    <path class="cls-7"
      d="M176.78,477.22a48.53,48.53,0,0,1-6.76,11c-1.17,1.5-2.8,3.39-4.75,3.71-2.21.39-4-1.43-4.68-3.38-1.56-3.84-.46-7.87.71-11.58a8.27,8.27,0,0,1,.07-1c-.65,1-1.56,2.15-2.15,3.06-.78,1.23-1.36,2.47-2.21,3.64-.39.59-5.72,7-6.44,5.92,0,0,.78-.33.72-.46-.78.52-.79.42-2.73.39.19.13.32.2.26.2-1.5.19-2.67-2.15-3-3.19a12.72,12.72,0,0,1-.06-5.66,30.6,30.6,0,0,1,4.49-11.12,9.43,9.43,0,0,1,2-2.27,12,12,0,0,1,1.56-.91,4.69,4.69,0,0,1,3.25-1.56c3.19,0,4.49,3.64,5.14,6.11,1.56-2,4.36-4.68,6.77-1.76,1.3,1.56.45,2.73-.26,4.17a30.26,30.26,0,0,0-2.74,7.41c.07-.2.26-1.17.53-1.24.52-.13-4.17,14.57,2.53,6.31,2-2.53,3.77-5.2,5.53-7.87.78-1.23,1.56-2.53,2.41-3.77.39-.52,1.56-1.75,1.62-.32S177.3,476,176.78,477.22Zm-16.52-4.81c0-.52-1.3-4.1-1-4.36.06-.06.65,1.82.71,1.95-.19-.78-.45-3.18-1.62-3.18-2.15,0-3.78,4-4.49,5.46a38.39,38.39,0,0,0-3,9.24c.19-1,.43-14.09,1.6-14-.91.2-.82,11.54-1,12.45-.13.52-1.17,3.91-.19,4.23.65.2,2.21-1.82,2.53-2.27q1.86-2.25,3.52-4.69l1.69-2.4a15.47,15.47,0,0,1,.91-1.37A1.34,1.34,0,0,0,160.26,472.41Zm.2-.45v.65C160.65,472.41,160.65,472.22,160.46,472Zm1.56,3.12-.33.45c-.06.2-.26,1.11-.26,1.11Z"/>
    <path class="cls-7"
      d="M199.67,475.66a22.1,22.1,0,0,1-1.89,3.19c-1.49,2.21-3.12,4.42-4.68,6.63a33.56,33.56,0,0,1-5.33,6,41.89,41.89,0,0,1-3.58,2.6c0-.06.07-.13.13-.19l-.45.19c.32-.06-.91.78-1.24.91a3.54,3.54,0,0,1-2.67-.58,4.45,4.45,0,0,1-1.69-2.21,7.14,7.14,0,0,1-.45-4.36c.06-.33,1-4.1,1.43-4,.13,0-.13.52-.07.58l.46-1.62a76.93,76.93,0,0,1,3.58-7.81c-2,.39-4.43.33-5.79-1.36-.39-.52-.26-1-.39-1.37s-.46-.78-.59-1.24c-.65-3.18,3.05-6.54,6.18-5.46l-.13-.19c2-1.89.85.58.91.91s-.58,3.33-.91,3.2c-.06,0,.46-2.42.46-2.49-.46,1.24.54,2.49-2,3.91-.86.48.39,1,1.23,1.17,1.24.32,3.19.13,4.75.58a21.55,21.55,0,0,0-3.12-.52s-5.37-.59-5.37-.65c1,.13,7.32.72,8.16.91,1.89.46,3.06,1.17,2.28,3.19s-1.76,3.77-2.6,5.65-1.43,3.78-2.15,5.66c-.19.65-1.62,3.38-1.1,4s4.22-2.48,5.2-3.52c-.2.2-.39.2-.52.33a19.82,19.82,0,0,1,1.49-2.08l1.89-2.41,3.51-4.62,3.58-4.81c.32-.39,1.88-2.67,2.27-1C200.71,473.78,200.06,474.88,199.67,475.66Zm-20.16,17.56a.31.31,0,0,1-.13-.19l.06.06c-.32-.71-.65-1.43-.78-1.82l.2.85-.26-1.37v-.07a.47.47,0,0,1-.07-.19.2.2,0,0,0,.07.13v-.33a11.18,11.18,0,0,1,.13-2.6v-.06a7.56,7.56,0,0,0-.2,1.75,8,8,0,0,0,.2,2.48,10.18,10.18,0,0,0,1,1.82c0-.07,0-.13-.06-.13a3.94,3.94,0,0,0,1.49.91,3.64,3.64,0,0,1-1.62-1.3Zm-.78-5.66v.07c0-.07.06-.13.06-.2S178.73,487.5,178.73,487.56Zm.19-1.23c0,.13-.06.19-.06.26S178.92,486.46,178.92,486.33Zm.13,0a40.51,40.51,0,0,1,1.82-4.88l1.24-2.86a37.3,37.3,0,0,1,2-4c-.46.13-1.37,2.47-1.5,2.67a33.43,33.43,0,0,0-1.56,3.38A35,35,0,0,0,179.05,486.33Zm.13,6.37a.26.26,0,0,0-.06-.13C179.12,492.64,179.18,492.64,179.18,492.7Zm1.89-21.59s0-.07.06-.07Zm0,.06a2.79,2.79,0,0,0,.46.46,2.61,2.61,0,0,0,1.3.46,3.19,3.19,0,0,1-1.5-.39A.84.84,0,0,1,181.07,471.17Zm7.09,5.53-1.37,2.93,1.37-2.86Zm0-.06h.06v-.07Zm0,0h.06v-.07Z"/>
    <path class="cls-7"
      d="M221.58,475.66a23,23,0,0,1-1.88,3.19c-1.5,2.21-3.12,4.42-4.68,6.63a34,34,0,0,1-5.34,6,43.5,43.5,0,0,1-3.57,2.6.31.31,0,0,1,.13-.19l-.46.19c.33-.06-.91.78-1.23.91a3.53,3.53,0,0,1-2.67-.58,4.4,4.4,0,0,1-1.69-2.21,7.15,7.15,0,0,1-.46-4.36c.07-.33,1-4.1,1.43-4,.13,0-.13.52-.06.58l.45-1.62a81.57,81.57,0,0,1,3.58-7.81c-1.95.39-4.42.33-5.79-1.36-.39-.52-.26-1-.39-1.37s-.45-.78-.58-1.24c-.65-3.18,3.13-6.54,6.18-5.46l-.14-.19c1.09-1.89.85.58.92.91s-.52,2.08-.85,1.95a12.28,12.28,0,0,1,.39-1.24c-.46,1.24-1.82,2.6-2,3.91-.13,1,.39,1,1.23,1.17,1.24.32,3.19.13,4.75.58a21.33,21.33,0,0,0-3.12-.52.06.06,0,0,1-.06-.06c1,.13,2,.13,2.86.32,1.88.46,3,1.17,2.27,3.19s-1.75,3.77-2.6,5.65-1.43,3.78-2.14,5.66c-.2.65-1.63,3.38-1.11,4s4.23-2.48,5.2-3.52c-.19.2-.39.2-.52.33a18.72,18.72,0,0,1,1.5-2.08l1.88-2.41,3.52-4.62,3.57-4.81c.33-.39,1.89-2.67,2.28-1C222.62,473.78,222,474.88,221.58,475.66Zm-20.16,17.56c-.06-.06-.13-.13-.13-.19l.07.06c-.33-.71-.65-1.43-.78-1.82l.19.85-.26-1.37v-.07a.53.53,0,0,1-.06-.19.22.22,0,0,0,.06.13v-.33a11.75,11.75,0,0,1,.13-2.6v-.06a7.57,7.57,0,0,0-.19,1.75,8,8,0,0,0,.19,2.48,11.1,11.1,0,0,0,1,1.82c0-.07,0-.13-.07-.13a3.9,3.9,0,0,0,1.5.91,3.62,3.62,0,0,1-1.63-1.3Zm-.78-5.66v.07c0-.07.07-.13.07-.2S200.64,487.5,200.64,487.56Zm.2-1.23c0,.13-.07.19-.07.26S200.84,486.46,200.84,486.33Zm.13,0a38.88,38.88,0,0,1,1.82-4.88l1.24-2.86a37.37,37.37,0,0,1,2-4c-.45.13-1.36,2.47-1.49,2.67a31.44,31.44,0,0,0-1.57,3.38A34,34,0,0,0,201,486.33Zm.13,6.37a.24.24,0,0,0-.07-.13C201,492.64,201.1,492.64,201.1,492.7ZM203,471.11a.07.07,0,0,1,.07-.07Zm1.52-2.61c.07.13-1.06,3.13-1.06,3.13a25.5,25.5,0,0,0,4.06.87,26.9,26.9,0,0,1-4.26-.8C203.11,471.63,204.5,468.63,204.5,468.5Zm5.57,8.2-1.36,2.93,1.36-2.86Zm0-.06h.07v-.07Zm0,0h.07v-.07Z"/>
    <path class="cls-7"
      d="M233.16,476.18c-1.11,1.63-2.15,3.19-3.38,4.75-1.3,1.76-2.93,4.55-5.21,5.07-.52.07-3-.58-2.92-1h.13c-.52-.26,0,.32-.78-.26a5.26,5.26,0,0,1-1.37-1.56,8.75,8.75,0,0,1-1.88-3c-.07-.32-.2-2.66.32-2.66.13,0,0,.32.07.32l.19-1.17c-.06.13-.06.2-.19.26s1-4.68,1.1-5.07c.52-1.37.78-2.93,2.08-3.71,1-.65,1.18-.68,3.45,0,.52.2,2,.85,2,1.5,0,.39-.32.45-.52.65a.39.39,0,0,1,.27-.07c.19.13-.79,1.5-.92,1.44s-.18,0-.11-.2a30,30,0,0,0-2.81,6.24c.32-.84,2.62-8.31,2.81-8.24s-5,11.69-2.75,12.8c1,.52,2.8-1.11,3.51-1.7a27.33,27.33,0,0,0,3.84-3.31.54.54,0,0,1-.45.13c-.26-.33,3-4.62,3.57-5s1.37-.58,1.5.26C235,473.91,233.81,475.34,233.16,476.18Zm-11.06,3.71-.13.52.13-.39V480C222.17,479.82,222.17,479.82,222.1,479.89Zm.85-16.06c-3.45,3.67-.26-2.21.45-1.89,0-.19.78-1.17.39-.32a15.09,15.09,0,0,0,1.56-2.67l-.78,1.17a26,26,0,0,0,1.56-4c0-.07-.13-.65,0-.78-1.36-.52-.39-1.3.2-1.76-.13,0-.2,0-.26-.13-.26-.26.52-.45.71-.52a3.58,3.58,0,0,1,2.93.26,4.59,4.59,0,0,1,1.63,2.21,2.52,2.52,0,0,1-1,2.34c-.26.26-.71.46-1,.72-.39.45-.32,1-.65,1.49s-.58.46-.78.79-.26.38-.06.58a2.18,2.18,0,0,0-.65.46,7.13,7.13,0,0,1-1.83,2.21,6.37,6.37,0,0,0,1.83-1.69c.52-.65,1.54-3.44,2.32-3.77-.65.71-1.22,3.9-2,4.42s-.06-.46-.91.32c0,0,.39-.06.19.07a8.13,8.13,0,0,1-1.95,1.69c-.39.13-.65.39-1.1.19a5.92,5.92,0,0,1-1.23-.69A6.48,6.48,0,0,0,223,463.83Zm.52-1.89c.06,0,.06.07.06.07s.07-.07.07-.14S223.53,461.94,223.47,461.94Zm1-1.69a1.61,1.61,0,0,1-.26.39Z"/>
    <path class="cls-7"
      d="M254.62,473.84l-2,2.67-3.51,4.55c-.91,1.17-2,2.28-2.93,3.45s-1.82,2.66-2.92,3.9a17.24,17.24,0,0,1-4.1,3.38,4.24,4.24,0,0,1-3.32.33c-1.69-.46-4.32-1.62-4.29-2.8a2.4,2.4,0,0,1-.71-1.24,7.43,7.43,0,0,1-.13-1.3,7.93,7.93,0,0,1,.32-2.14c.13-.85.52-1.63.65-2.47s.39-1.76.52-2.61a16.09,16.09,0,0,1,.13-2.4c.13-.52.52-1,.72-1.63a6.07,6.07,0,0,0-.59,1.11c-.19.52-.32,1-.52,1.49s-.26,1-.45,1.5a5.74,5.74,0,0,0-.59,1.75c-.06.59,0,1.18-.06,1.76a7.1,7.1,0,0,0-.26,1.63c0,.19.13.58.13.71s-.13.59-.13.91c0,.59.88,1.46.94,2.11a9.08,9.08,0,0,1-1.27-5.88c.33-1.95.59-3.84,1-5.72a26.21,26.21,0,0,1,5.07-10.67c2-2.66,4.69-4.68,8.2-4a5.94,5.94,0,0,1,3.57,1.95,4.58,4.58,0,0,1,.39,4.23c-.84,2.54-3,4.55-5,6.24a21.89,21.89,0,0,1-2.73,2,12,12,0,0,1-2.08.91l-1.11.39c-.46.13-.52.06-.72.45-.32.65-.13,1.3-.26,1.95-.13.85-.32,1.63-.52,2.48-.32,1.56-.84,3.57-.45,5.2.71,3.31,6.18-1.82,7.15-2.73.65-.59,1.24-1.24,1.82-1.82a13.93,13.93,0,0,0,1-1.11,2,2,0,0,0,.13-.45,35.63,35.63,0,0,1,2.79-3.58c1.18-1.37,2.22-2.8,3.32-4.29.59-.85,2-3.25,3-1.5v.07c.07.06.07.06.07,0C255.14,473.13,254.94,473.45,254.62,473.84ZM237.9,475.4a18.62,18.62,0,0,0,5.47-4.36l1.1-1.43c.2-.32.52-.52.65-.91s-.06-.58,0-1l.26-1.37c.07-.65-.19-2.34-1.17-2.14a3,3,0,0,0-1.17,1l-1.17,1.56a42.49,42.49,0,0,0-3.05,6.31.47.47,0,0,1-.07.19C238.42,474,238.23,474.69,237.9,475.4Z"/>
    <path class="cls-7"
      d="M285.7,476.77c-1.36,1.43-2.66,3-4,4.55-2.67,3.25-4.75,7-7.42,10.41-2.08,2.6-5.53,7.34-9,3.83-2.8-2.73-2.08-7.93-1.76-11.38a54.7,54.7,0,0,1-6.24,5.46c-1.24.85-2.67,1.83-4.23,1.5-5.07-1-4.36-8.13-2.86-11.58.84-2,1.17-4.16,2.34-6.24,1.3-2.34,3.19-5,5.72-6.05,3.06-1.23,5.86,2.21,7.61,4.23a108,108,0,0,1,6.18-16.58c.13-.2.59-2.08,1.11-2.47a4.85,4.85,0,0,0-.72,1.75,16.16,16.16,0,0,1,1-2.14h-.06c.19-.27,1-2.35,1.23-2.61a31.26,31.26,0,0,1,1.89-2.73,11.54,11.54,0,0,1,4.48-3.44c2.41-.91,6-.39,7,2.27,1.3,3.64-1.1,7.94-2.86,10.93-1.1,1.82-2.27,3.7-3.51,5.46L280,464.15l-.59.65c.07-.13.13-.26.07-.32l-.52.71h0l-.2.26L276,469.22c.32-.39.42-.79.55-.72l-4.39,5.93c-1.63,2-1.82,5.39-2.21,7.93-.26,1.43-2,10.6.26,10.6.58,0,1.37-1.1,1.69-1.49a34.31,34.31,0,0,0,2.67-3.32c1.75-2.34,3.38-4.68,5.07-7s3.45-4.55,5.33-6.63c.39-.32,3.32-3.9,3.71-1.75v.06C288.82,474.43,286.74,475.73,285.7,476.77Zm-21,.06c.26-1.17.71-2.27.06-3.31a9.25,9.25,0,0,0-1.95-2.54,1.48,1.48,0,0,0-1.24-.46.23.23,0,0,0-.19.07l.32-.2c-1.36.13-2.4,2.35-3.12,3.71a45,45,0,0,0-3.51,8.59c-.26,1-1.56,4.74-.06,5.39.78.39,2.08-.58,2.86-1.3a4,4,0,0,1-2.41,1.17c-2.14-.13-.58-4.35.39-6.95-.91,2.53-2.27,6.69-.45,6.89,1.49.13,3.83-2.54,4.81-3.45s2.08-1.95,3.06-3,1.1-2.47,1.36-4a1.11,1.11,0,0,1,.07-.33Zm-6.38,9.5h.07a35.32,35.32,0,0,0,2.79-2.47c.72-.65,2.74-2.08,2.87-2.93q-2.25,2.34-4.69,4.49Zm2.21-15c.07,0,.26-.26.52-.45C260.86,471,260.66,471.3,260.53,471.3Zm2.74-.32a1.47,1.47,0,0,0-.39-.26Zm7-5.33a18,18,0,0,1-.91,1.62c-.26.78.07,1.63-.45,2.28a.15.15,0,0,0,.13-.13,15.32,15.32,0,0,0,.71-2A4.5,4.5,0,0,0,270.22,465.65Zm1.82-7.29a20.22,20.22,0,0,1-1.17,2.47,21.51,21.51,0,0,0-1,2.87,13.59,13.59,0,0,0,1-2.21C271.2,460.51,271.72,459.4,272,458.36Zm3.06,3.91-.19.32c-.07.26-.13.39-.07.33-1,2.79-1.88,5.59-2.73,8.38a1.63,1.63,0,0,1,.33-.38,3.35,3.35,0,0,0-.72,1.23l.26-.26.46-.59,3.31-4.29-1.3,1.63L273,470.13a109.34,109.34,0,0,0,7.48-10.53c1.95-3.12,5.07-7.74,4.81-11.64a2,2,0,0,0-.71-1.76c-1.5-.84-3.19,2.15-3.78,3.12a63.89,63.89,0,0,0-5.46,12.1v.07a.75.75,0,0,0-.13.26v.06a.42.42,0,0,0-.06.26A.24.24,0,0,0,275.1,462.27Zm-.19.32a3,3,0,0,1-.07.33l.26-.65Zm1,6.76c-.06.07-.13.13-.13.2A.75.75,0,0,0,275.88,469.35Zm.07-.13-.07.13A.21.21,0,0,0,276,469.22Z"/>
    <path d="M296.33,497.17c-.52,1.2-1.27,1.58-2.32,2.55-.9.83-1.65,1.8-3.08,1a6.92,6.92,0,0,1-2.17-2c-1.05-2.25,1.72-5.33,3.45-6.23a5,5,0,0,1,4.27-.45c.38.08.38-.22.75.23s0,1.27,0,1.8C298.28,494.1,296.48,496.87,296.33,497.17Zm14.48-51c-.68,1.95-1.5,3.9-2.25,5.85-1.43,3.75-2.63,7.58-3.9,11.4-2.1,6.23-3.6,12.68-5.85,18.9-.45,1.13-2.18,7.35-4.05,5.4-1.2-1.2.15-5,.45-6.45.45-1.87,1.12-3.67,1.57-5.55,2-8,3.68-16.2,5.18-24.37A64.24,64.24,0,0,0,303,445c0-1.2-.15-2.17,1-3.15,2.18-1.87,6.9-1.12,7.28,2v.07A11.5,11.5,0,0,1,310.81,446.17Zm-11.1,25.88a.53.53,0,0,0-.08.3A.53.53,0,0,1,299.71,472.05Zm2-8a20.17,20.17,0,0,0-1.13,4.58,21.3,21.3,0,0,1-.82,3.45c.52-1.88,1.72-3.75,2.1-5.78a50,50,0,0,0,1-6.6v-.07A42,42,0,0,1,301.66,464Z"/>

  </clipPath>
  
  <g class="loading_g">
    <path clip-path="url(#loading_clipPath)" stroke="#000" fill="none" stroke-width="8"
      d="M56.5,354.5c4.59-3.57,6.28-3.5,7-3,1.41,1,.26,4.47-1,11-1.36,7-.57,5.78-2,14-2.59,14.86-6.38,25.89-6,26s1.84-7.3,7-16c1.69-2.84,4.48-6.27,10-13,10.64-13,11.62-13.21,12-13,1.54.85-3.79,10.5-6,27-.28,2.06-1.69,12.55,0,13,1.34.35,3.2-6,9-16,6.45-11.12,7.42-8.89,13-19a70.47,70.47,0,0,1,11-16c1.65-1.76,2-2,2-2-.32-.38-30.56,17.37-28,31,.81,4.32,5,8.34,9,9,2.36.38,5.61-1.41,12-5,8.68-4.88,9.09-6.2,9-7-.2-1.65-2.8-3-5-3-4.9,0-7.86,6.67-8,7-1.19,2.78-.3,3.45-2,9-.7,2.29-1,2.78-1,4,.1,3.1,2.5,6.82,5,7s3.47-3.9,10-12c4.45-5.52,4.67-4.39,8-9,2.79-3.86,3.79-6.24,7-8,3-1.62,6.46-2,7-1,.66,1.19-3.59,3.36-4,8-.07.81-.25,2.95,1,4,2.08,1.74,6.24-1.08,7,0,.6.86-2.05,2.57-4,7-.86,1.95-1.24,4.3-2,9-.34,2.13-.36,2.75,0,3,1.33.9,6.29-4.26,7-5,5.11-5.32,5.06-7.9,9-10a9.78,9.78,0,0,1,3-1,28.43,28.43,0,0,0,3-1c2.34-.84,2.71-.47,4-1a8.93,8.93,0,0,0,4-4c.25-.41,3.43-5.56,2-7s-7,1.65-10,4c-2.7,2.1-4.59,3.56-5,6-.48,2.86,1.57,4.16,1,8-.33,2.19-1.09,2.38-1,4,.16,2.77,2.62,5.9,5,6,2.55.11,3.94-3.29,8-9,6.31-8.87,8.47-8.42,10-12,4.2-9.8-6.58-25.77-18-34-16.54-11.92-36.74-9.27-37-8-.11.55,3.44,1.19,8,5,2.6,2.17,5.15,4.3,5,7-.16,2.86-3.27,4.88-5,6-3.77,2.45-7,2.37-7,3,0,.82,5.4,2.38,18,3,16.31.8,30.11-.7,55-2,8.74-.46,18.53-.87,20,3,.79,2.06-.81,5.32-2,7a10.76,10.76,0,0,1-5,4c-2.24.82-3.07.13-5,1-1.68.76-2.42,1.9-4,4-4.95,6.58-5.6,5.94-7,9-1,2.22-2.59,5.65-1,8a4.68,4.68,0,0,0,4,2c2.57-.2,3.66-3,8-9,1.24-1.72,5.34-7.38,6-7s-1.72,4.33-4,11c-1.7,5-1.45,5.61-4,15-2.84,10.45-4,12.45-6,14-3.1,2.46-7.75,3.5-9,2-.26-.31-1-1.48,2-7a52.56,52.56,0,0,1,9-12c13.67-13.86,13.85-19.61,20-20,3.57-.23,5.8,1.57,10,0a11.78,11.78,0,0,0,6-5c.39-.69,2.07-3.65,1-5s-5.42-1.21-8,1c-3.61,3.09-1.39,7.81-5,15a9.32,9.32,0,0,0-1,3c-.38,2.57.21,6.34,2,7,1.64.6,3.15-1.81,10-8,5-4.54,6-4.83,6-6-.13-4.62-15.78-3.23-22-12-5.89-8.3-1.21-22.7,5-31,12.05-16.1,33.19-13.67,39-13,3.44.4,6.17,1.1,7,3,1.54,3.53-3.82,10-7.5,14.5a28.9,28.9,0,0,0-4.5,6.5,34.6,34.6,0,0,0-2,6c-2.16,6-3.52,8.37-7,16-2.95,6.48-5.63,13-6,21-.17,3.61.8,3.93,1,4,1.94.63,8.55-6.77,7.5-12.5-1.75-9.58-23.57-7.38-28.5-19.5-3.1-7.64,2.39-16.36,4-19,12.26-20.11,47.51-23.07,53-14,2.69,4.45-2.51,14.07-3,15-2.25,4.22-3,3-5.5,7.5-3.61,6.45-3.65,11.68-7.5,18.5-.23.41-.63,1.1-1.17,2.15A48.35,48.35,0,0,0,254,387c-.36,1.22-.29,1.17-1,4-2.59,10.36-3.84,12.47-2.5,14.5,1.16,1.75,3.78,2.72,5,2,.69-.41.78-1.25,1-2,.94-3.22,4.17-4.73,6-6,3.5-2.43,7.63-7.74,7-11-.75-3.9-8.25-4.54-21-8-7.36-2-28.32-7.69-28-12,.21-2.81,9.41-4.59,15-5,10-.74,10.38,2.77,20,2a150.78,150.78,0,0,0,20-3c1.91-.45,5.17-1.26,6,0,.65,1-.64,2.53-3,7a47.15,47.15,0,0,0-4,9c-.93,3.12-.95,5.08-1,9,0,2.06.1,3.27,1,4a3.63,3.63,0,0,0,4,0c1.43-.91,1.79-2.66,2-4,1-6.7-.82-9.39,0-13,1.4-6.2,9.58-10.19,11-9,.65.54-.41,1.92-3,10l-3,10c.22,3.2.64,4,1,4,.87.11,1.38-3.87,4-8,2.89-4.55,7.14-7.63,8-7s-1.35,4.06-2.5,11.5c-.33,2.12-.43,3.63.5,4.5,1.48,1.39,4.55.18,5,0a7.3,7.3,0,0,0,3-3c3.19-6-9.91-18.62-7-26,3.1-7.88,24.95-11,32-2,3,3.84,3.7,10.46,1,13s-6.76-1-12.5,1.5c-3.93,1.72-5.9,5.08-8.5,9.5-2.26,3.84-4.81,8.21-3,11a5,5,0,0,0,5,2c2.59-.57,3.25-3.54,6-8,3-4.9,7.21-9.43,8-9s-6.69,13.8-8,21c0,.16-.15.85-.34,1.85-.33,1.74-1,5.38-1.66,8.15-1.14,4.83-1.71,7.24-3,9-1,1.3-3,4-6,4a5.93,5.93,0,0,1-5-3c-1.35-2.59,1.11-6.08,5-11,8.53-10.79,12.8-16.19,21-22s11.74-9,14-8c6.15,2.71,7.47,27.5-3,40-14.62,17.45-46.37,4-125-6-84.51-10.71-108.21-2.78-121,11-5.22,5.62-18.08,22.43-13,31,2.34,3.95,8.92,6.85,12,5,1.67-1,1.11-2.7,3-7,1-2.37,3.79-8.62,9-10,1.77-.47,4.7-.61,6,1s.42,4.28-1,8c-2.71,7.12-4.07,10.67-6,14-6.63,11.43-10.53,22.72-10,23s7.63-10.88,13-20c4.38-7.44,6.6-11.77,12-16,4.28-3.35,10-6.18,11-5,.68.78-1,2.83-4,8a137.93,137.93,0,0,0-8,17c-2.16,5.16-4.83,11.55-4,12s5-5.33,12-15c8.25-11.45,11.55-15.74,14-15,1.93.58,2.44,4.05,2.5,4.5.48,3.53-1.81,5.43-4,11-1.14,2.91-.59,2.56-2,7-3.23,10.13-6.22,12.24-5.5,17.5.17,1.22.6,4.34,3,6,4.05,2.8,11.53,0,12-3,.41-2.61-4.84-4.15-9-8-10.41-9.62-13.32-33.05-3-41,10.54-8.12,33.46,1,35,10,.87,5.1-4.85,11.59-7,11-1.53-.42-1-4.32-3-5-2.39-.8-5.77,3.69-6,4-1.9,2.57-2.35,5.1-3,9-.69,4.12-1.05,6.3,0,7,1.95,1.3,7.31-3.49,9-5,5.43-4.86,8.69-10.2,9-10s-5.69,7.21-4,14c.24,1,.51,3.45,2,4,2.39.88,6-3.76,7-5,1.17-1.49,5.28-6.19,4-8-.86-1.22-3.15.28-5-1-2.61-1.8-2.73-8,0-12,3.39-5,11.4-6.82,14-4,2.19,2.37.93,8.48-2,10-1.95,1-4.32-.18-5,1-.46.79.07,2.23,1,3,2.46,2,7.08-1.22,8,0s-3.65,4.73-5.5,11.5c-.58,2.12-1.55,5.65,0,7,2.11,1.84,8-1.17,11.5-4.5.65-.62,6.75-6.55,5-11-1.25-3.18-5.41-2.66-6-5-1.21-4.82,14.81-13.48,16-12,.28.35-1.47,3.24-5,9-1.7,2.77-2.45,3.92-2,5,1,2.29,6,.87,7,3s-3.27,4.5-5,11c-.39,1.48-1.35,5.07,0,6,1.9,1.31,7.24-3.44,9-5,3-2.7,4.55-4,5-6,1-4.32-3.61-6.24-5-12a17.8,17.8,0,0,1,7-18c6.43-4.41,14.8-3,15-2s-5.84,2.11-6,5c-.07,1.31,1.12,1.67,1,3-.22,2.34-4,2.33-5,5s2,4.3,1,7c-.76,2-2.63,1.59-4,4a7.2,7.2,0,0,0,0,7c.19.32,1.79,3.05,4,3,2.86-.07,2.83-4.69,7-7,3.79-2.09,6.12.44,10-2,.58-.36,3.91-2.47,4-6,.07-2.91-2.09-6-4-6s-3,2.93-5,8c-3.06,7.63-3,11.89-3,13,.07,2.64.15,6.22,2,7s5-2,7-4a31.7,31.7,0,0,0,6-8c5.75-11.17,4.39-18,8-19,2.54-.72,5.63,1.94,7,4,1.18,1.78,2.18,4.79,1,6s-3.27-.81-6,0c-3.81,1.12-5.25,6.7-6.5,11.5-1,4-1.69,6.51-.5,7.5,2.64,2.19,12-5.16,13-6,5.75-4.62,9-9.4,12-14a67.14,67.14,0,0,0,8-17c1.1-3.56,1.95-6.38,1-7-1.53-1-7.33,4.06-11,10-1.83,3-2.89,6.64-5,14-.26.92-1.35,6.79-3.5,18.5-.53,2.91-1.14,6.39.5,7.5.35.24,1.17.6,3,0,4.76-1.55,7.14-7.14,10-12,5.46-9.29,7.4-7,10-13,4.63-10.64-2-16.72,3-24,4.16-6.07,13.46-8.67,15.5-6.5.88.93.38,2.71,0,4-5.38,18.33-8.08,27.5-8.5,28.5-3.47,8.19-5.15,11.08-4,15,.64,2.16,1.87,4,1,6-1.15,2.68-4.67,2.58-5.5,5.5a4.35,4.35,0,0,0,.5,3.5c1.32,2,4.25,2,6,2a15.79,15.79,0,0,0,9-3" />
  </g>
</svg>
